<svg width="18" height="14" viewBox="0 0 18 14" fill="none" xmlns="http://www.w3.org/2000/svg">
<path d="M16.5013 4.50001H9.0013C8.5013 4.50001 8.16797 4.16668 8.16797 3.66668C8.16797 3.16668 8.5013 2.83334 9.0013 2.83334H16.5013C17.0013 2.83334 17.3346 3.16668 17.3346 3.66668C17.3346 4.16668 17.0013 4.50001 16.5013 4.50001Z" fill="#00E2B8"/>
<path d="M4.0013 4.50001H1.5013C1.0013 4.50001 0.667969 4.08334 0.667969 3.66668C0.667969 3.25001 1.0013 2.83334 1.5013 2.83334H4.0013C4.5013 2.83334 4.83464 3.16668 4.83464 3.66668C4.83464 4.16668 4.5013 4.50001 4.0013 4.50001Z" fill="#00E2B8"/>
<path d="M6.5013 7.00001C4.66797 7.00001 3.16797 5.50001 3.16797 3.66668C3.16797 1.83334 4.66797 0.333344 6.5013 0.333344C8.33464 0.333344 9.83464 1.83334 9.83464 3.66668C9.83464 5.50001 8.33464 7.00001 6.5013 7.00001ZM6.5013 2.00001C5.58464 2.00001 4.83464 2.75001 4.83464 3.66668C4.83464 4.58334 5.58464 5.33334 6.5013 5.33334C7.41797 5.33334 8.16797 4.58334 8.16797 3.66668C8.16797 2.75001 7.41797 2.00001 6.5013 2.00001Z" fill="#00E2B8"/>
<path d="M9.0013 11.1667H1.5013C1.0013 11.1667 0.667969 10.8333 0.667969 10.3333C0.667969 9.83333 1.0013 9.5 1.5013 9.5H9.0013C9.5013 9.5 9.83464 9.83333 9.83464 10.3333C9.83464 10.8333 9.5013 11.1667 9.0013 11.1667Z" fill="#00E2B8"/>
<path d="M16.5013 11.1667H14.0013C13.5013 11.1667 13.168 10.8333 13.168 10.3333C13.168 9.83333 13.5013 9.5 14.0013 9.5H16.5013C17.0013 9.5 17.3346 9.83333 17.3346 10.3333C17.3346 10.8333 17.0013 11.1667 16.5013 11.1667Z" fill="#00E2B8"/>
<path d="M11.5013 13.6667C9.66797 13.6667 8.16797 12.1667 8.16797 10.3333C8.16797 8.5 9.66797 7 11.5013 7C13.3346 7 14.8346 8.5 14.8346 10.3333C14.8346 12.1667 13.3346 13.6667 11.5013 13.6667ZM11.5013 8.66667C10.5846 8.66667 9.83464 9.41667 9.83464 10.3333C9.83464 11.25 10.5846 12 11.5013 12C12.418 12 13.168 11.25 13.168 10.3333C13.168 9.41667 12.418 8.66667 11.5013 8.66667Z" fill="#00E2B8"/>
</svg>
