<svg width="100" height="100" viewBox="0 0 100 100" fill="none" xmlns="http://www.w3.org/2000/svg">
<path d="M95.4539 47.7273H77.272C74.7619 47.7273 72.7266 49.7626 72.7266 52.2728C72.7266 54.7829 74.7619 56.8182 77.272 56.8182H95.4539C97.9641 56.8182 99.9994 54.7829 99.9994 52.2728C99.9994 49.7626 97.9646 47.7273 95.4539 47.7273Z" fill="#024236"/>
<path d="M22.7274 47.7273H4.54548C2.03532 47.7273 0 49.7626 0 52.2728C0 54.7829 2.03532 56.8182 4.54548 56.8182H22.7274C25.2375 56.8182 27.2729 54.7829 27.2729 52.2728C27.2729 49.7626 25.2375 47.7273 22.7274 47.7273Z" fill="#00D2AB"/>
<path d="M78.9265 16.9173L66.0697 29.7742C64.2945 31.5489 64.2945 34.427 66.0697 36.2022C66.957 37.09 68.1204 37.5339 69.2834 37.5339C70.4468 37.5339 71.6103 37.0905 72.4976 36.2022L85.3545 23.3453C87.1297 21.5706 87.1297 18.6925 85.3545 16.9173C83.5798 15.1421 80.7017 15.1421 78.9265 16.9173Z" fill="#016A57"/>
<path d="M49.9986 79.5457C47.4884 79.5457 45.4531 81.581 45.4531 84.0911V93.1821C45.4531 95.6922 47.4884 97.7276 49.9986 97.7276C52.5088 97.7276 54.5441 95.6922 54.5441 93.1821V84.0911C54.5441 81.581 52.5088 79.5457 49.9986 79.5457Z" fill="#07F8CB"/>
<path d="M27.5003 68.3433L14.6439 81.2002C12.8687 82.9754 12.8687 85.8531 14.6439 87.6282C15.5312 88.5156 16.6947 88.9595 17.8581 88.9595C19.0215 88.9595 20.185 88.5156 21.0718 87.6282L33.9283 74.7713C35.7034 72.9962 35.7034 70.1185 33.9283 68.3433C32.1536 66.5682 29.2755 66.5682 27.5003 68.3433Z" fill="#00E2B8"/>
<path d="M49.9986 2.27246C47.4884 2.27246 45.4531 4.30778 45.4531 6.81794V24.9998C45.4531 27.51 47.4884 29.5453 49.9986 29.5453C52.5088 29.5453 54.5441 27.51 54.5441 24.9998V6.81794C54.5441 4.30778 52.5088 2.27246 49.9986 2.27246Z" fill="#077B66"/>
<path d="M21.0718 16.9173C19.2972 15.1421 16.419 15.1421 14.6439 16.9173C12.8687 18.6925 12.8687 21.5701 14.6439 23.3453L27.5003 36.2022C28.3876 37.09 29.5511 37.5339 30.7145 37.5339C31.8775 37.5339 33.0414 37.09 33.9283 36.2022C35.7034 34.4275 35.7034 31.5494 33.9283 29.7742L21.0718 16.9173Z" fill="#239681"/>
</svg>
