<svg width="340" height="102" viewBox="0 0 340 102" fill="none" xmlns="http://www.w3.org/2000/svg">
<g clip-path="url(#clip0_8_2619)">
<path d="M305.745 54.655L321.215 23.63H340L305.15 101.49H287.045L298.902 74.885L274.805 23.63H293.335L308.295 53.5925L305.745 54.655ZM254.447 61.2425C256.997 58.735 258.272 55.5475 258.272 51.765C258.333 49.9872 258.025 48.2162 257.367 46.5635C256.709 44.9108 255.716 43.4123 254.45 42.1625C253.184 40.9127 251.674 39.9387 250.013 39.3019C248.352 38.6651 246.577 38.3793 244.8 38.4625C240.89 38.4625 237.703 39.7375 235.153 42.245C232.603 44.7525 231.327 47.94 231.327 51.765C231.273 53.5393 231.586 55.3057 232.246 56.9533C232.907 58.6009 233.901 60.0942 235.166 61.3394C236.431 62.5846 237.94 63.5547 239.598 64.189C241.256 64.8232 243.027 65.1079 244.8 65.025C248.71 65.025 251.94 63.7925 254.447 61.2425ZM261.842 25.84C266.224 28.2867 269.865 31.869 272.382 36.21C275.06 40.7575 276.378 45.9 276.378 51.765C276.489 57.2038 275.107 62.5692 272.382 67.2775C269.865 71.6185 266.224 75.2008 261.842 77.6475C257.672 80.0197 252.955 81.2647 248.158 81.26C241.655 81.26 236.3 79.39 232.135 75.65V101.49H213.987V23.63H230.818V29.155C233.044 26.8276 235.745 25.0049 238.736 23.8098C241.727 22.6148 244.94 22.0752 248.158 22.2275C252.96 22.2275 257.508 23.4175 261.842 25.84ZM184.28 61.2425C186.83 58.735 188.105 55.5475 188.105 51.765C188.166 49.9872 187.857 48.2162 187.199 46.5635C186.542 44.9108 185.549 43.4123 184.283 42.1625C183.017 40.9127 181.506 39.9387 179.845 39.3019C178.184 38.6651 176.409 38.3793 174.633 38.4625C172.859 38.3853 171.089 38.6756 169.433 39.3151C167.777 39.9546 166.271 40.9296 165.01 42.1787C163.749 43.4279 162.76 44.9243 162.105 46.5739C161.449 48.2236 161.142 49.991 161.202 51.765C161.148 53.5355 161.46 55.2982 162.118 56.9428C162.776 58.5875 163.766 60.0787 165.026 61.3232C166.287 62.5677 167.791 63.5388 169.443 64.1758C171.096 64.8127 172.863 65.1018 174.633 65.025C178.542 65.025 181.773 63.7925 184.28 61.2425ZM191.675 25.84C196.059 28.2833 199.701 31.8664 202.215 36.21C204.85 40.7575 206.21 45.9 206.21 51.765C206.21 57.5875 204.85 62.7725 202.215 67.2775C199.701 71.6211 196.059 75.2042 191.675 77.6475C187.504 80.0197 182.788 81.2647 177.99 81.26C171.488 81.26 166.133 79.39 161.967 75.65V101.49H143.82V23.63H160.65V29.155C162.875 26.8254 165.575 25.0011 168.567 23.8059C171.559 22.6107 174.772 22.0724 177.99 22.2275C182.793 22.2275 187.34 23.4175 191.675 25.84ZM112.285 61.2425C114.835 58.735 116.11 55.5475 116.11 51.765C116.171 49.9872 115.862 48.2162 115.204 46.5635C114.547 44.9108 113.554 43.4123 112.288 42.1625C111.022 40.9127 109.511 39.9387 107.85 39.3019C106.189 38.6651 104.414 38.3793 102.637 38.4625C100.868 38.3913 99.1021 38.6861 97.4513 39.3283C95.8005 39.9705 94.2999 40.9464 93.0434 42.1949C91.7869 43.4434 90.8015 44.9377 90.1488 46.5844C89.4961 48.2311 89.1901 49.9947 89.25 51.765C89.1957 53.5355 89.5073 55.2982 90.1653 56.9428C90.8232 58.5875 91.8134 60.0787 93.0739 61.3232C94.3344 62.5677 95.8381 63.5388 97.4909 64.1758C99.1438 64.8127 100.91 65.1018 102.68 65.025C106.59 65.025 109.82 63.7925 112.327 61.2425H112.285ZM116.663 23.63H133.45V79.8575H116.62V74.3325C114.395 76.6621 111.695 78.4863 108.703 79.6816C105.712 80.8768 102.498 81.4151 99.28 81.26C94.482 81.2647 89.7655 80.0197 85.595 77.6475C81.2216 75.2049 77.5934 71.6207 75.0975 67.2775C72.3726 62.5692 70.9908 57.2038 71.1025 51.765C70.983 46.3118 72.3651 40.9307 75.0975 36.21C77.6035 31.8746 81.2293 28.2928 85.595 25.84C89.7678 23.4733 94.4828 22.2286 99.28 22.2275C106.59 22.2275 112.37 24.5225 116.62 29.155V23.63H116.663ZM45.6025 49.9375H38.1225C36.7096 49.9375 35.3539 50.4958 34.3509 51.4909C33.3478 52.486 32.7787 53.8371 32.7675 55.25V79.8575H50.9575V55.25C50.9463 53.8371 50.3772 52.486 49.3741 51.4909C48.3711 50.4958 47.0154 49.9375 45.6025 49.9375ZM70.89 0L41.8625 28.9L12.8775 0L0 12.8775L20.74 33.5325C26.3555 39.1253 33.9582 42.2655 41.8837 42.2655C49.8093 42.2655 57.412 39.1253 63.0275 33.5325L83.725 12.8775L70.89 0Z" fill="#00E2B8"/>
</g>
<defs>
<clipPath id="clip0_8_2619">
<rect width="340" height="102" fill="white"/>
</clipPath>
</defs>
</svg>
