<svg width="17" height="17" viewBox="0 0 17 17" fill="currentColor" xmlns="http://www.w3.org/2000/svg">
<path d="M12.8398 2.41238C14.1193 3.69565 14.8826 5.40439 14.9847 7.2137C15.0867 9.02302 14.5203 10.8067 13.3931 12.2257L16.2456 15.0782C16.3252 15.1551 16.3887 15.247 16.4323 15.3487C16.476 15.4504 16.499 15.5597 16.5 15.6704C16.5009 15.781 16.4798 15.8908 16.4379 15.9932C16.396 16.0956 16.3342 16.1886 16.2559 16.2669C16.1777 16.3451 16.0846 16.407 15.9822 16.4489C15.8798 16.4908 15.7701 16.5119 15.6594 16.5109C15.5488 16.51 15.4394 16.487 15.3378 16.4433C15.2361 16.3996 15.1441 16.3361 15.0673 16.2565L12.2148 13.404C11.1004 14.2905 9.75344 14.8356 8.33624 14.9736C6.91904 15.1117 5.49218 14.8367 4.22774 14.182C2.9633 13.5272 1.9153 12.5206 1.21014 11.2836C0.504986 10.0466 0.172792 8.63193 0.253626 7.21032C0.334461 5.78871 0.824871 4.42085 1.66571 3.27172C2.50655 2.12259 3.66189 1.24128 4.9924 0.734076C6.32291 0.226876 7.77175 0.115453 9.16416 0.413246C10.5566 0.71104 11.8331 1.40533 12.8398 2.41238ZM3.58059 11.6724C4.65639 12.7078 6.08871 13.2905 7.58178 13.3003C9.07485 13.31 10.5147 12.7461 11.6039 11.7249C11.6206 11.704 11.6281 11.6782 11.6473 11.6582C11.6664 11.6382 11.6931 11.6315 11.7139 11.6149C12.7621 10.5392 13.3443 9.0939 13.3345 7.59202C13.3246 6.09014 12.7236 4.65259 11.6614 3.59071C10.582 2.53308 9.13098 1.9407 7.61976 1.9407C6.10854 1.9407 4.65753 2.53308 3.57809 3.59071C3.04704 4.12131 2.62576 4.75136 2.33834 5.44485C2.05091 6.13834 1.90297 6.88168 1.90297 7.63238C1.90297 8.38308 2.05091 9.12642 2.33834 9.81991C2.62576 10.5134 3.04704 11.1434 3.57809 11.674L3.58059 11.6724Z" fill="#00E5BD"/>
</svg>
