<svg width="20" height="20" viewBox="0 0 20 20" fill="none" xmlns="http://www.w3.org/2000/svg">
<path fill-rule="evenodd" clip-rule="evenodd" d="M10.0026 2.49992C5.86047 2.49992 2.5026 5.85778 2.5026 9.99992C2.5026 14.1421 5.86047 17.4999 10.0026 17.4999C14.1447 17.4999 17.5026 14.1421 17.5026 9.99992C17.5026 5.85778 14.1447 2.49992 10.0026 2.49992ZM0.835938 9.99992C0.835938 4.93731 4.93999 0.833252 10.0026 0.833252C15.0652 0.833252 19.1693 4.93731 19.1693 9.99992C19.1693 15.0625 15.0652 19.1666 10.0026 19.1666C4.93999 19.1666 0.835938 15.0625 0.835938 9.99992ZM10.0026 4.16659C10.4628 4.16659 10.8359 4.53968 10.8359 4.99992V9.48489L13.7086 10.9212C14.1203 11.1271 14.2871 11.6276 14.0813 12.0393C13.8755 12.4509 13.3749 12.6178 12.9633 12.4119L9.62993 10.7453C9.34761 10.6041 9.16927 10.3156 9.16927 9.99992V4.99992C9.16927 4.53968 9.54237 4.16659 10.0026 4.16659Z" fill="#00E5BD"/>
</svg>
